<svg width="200" height="48" viewBox="0 0 520 124" xmlns="http://www.w3.org/2000/svg">
  <!-- Monogramme N compact -->
  <circle cx="62" cy="62" r="52" stroke="#8a6f30" stroke-width="0.8" fill="none"/>
  <circle cx="62" cy="62" r="42" stroke="#c9a84c" stroke-width="0.8" fill="none"/>
  <line x1="62" y1="10" x2="62" y2="20" stroke="#c9a84c" stroke-width="0.8"/>
  <line x1="62" y1="104" x2="62" y2="114" stroke="#c9a84c" stroke-width="0.8"/>
  <line x1="10" y1="62" x2="20" y2="62" stroke="#c9a84c" stroke-width="0.8"/>
  <line x1="104" y1="62" x2="114" y2="62" stroke="#c9a84c" stroke-width="0.8"/>
  <path d="M62 6  L65 10 L62 14 L59 10 Z" fill="#c9a84c"/>
  <path d="M62 110 L65 114 L62 118 L59 114 Z" fill="#c9a84c"/>
  <path d="M6  62 L10 59 L14 62 L10 65 Z" fill="#c9a84c"/>
  <path d="M110 62 L114 59 L118 62 L114 65 Z" fill="#c9a84c"/>
  <line x1="94" y1="32" x2="100" y2="38" stroke="#8a6f30" stroke-width="0.5"/>
  <line x1="30" y1="32" x2="24"  y2="38" stroke="#8a6f30" stroke-width="0.5"/>
  <line x1="94" y1="92" x2="100" y2="86" stroke="#8a6f30" stroke-width="0.5"/>
  <line x1="30" y1="92" x2="24"  y2="86" stroke="#8a6f30" stroke-width="0.5"/>
  <text x="62" y="80" font-family="Georgia, 'Times New Roman', serif" font-size="58" fill="#e8dcc8" text-anchor="middle">N</text>

  <!-- Séparateur vertical -->
  <line x1="140" y1="22" x2="140" y2="102" stroke="#8a6f30" stroke-width="0.5"/>

  <!-- Texte wordmark -->
  <text x="160" y="55" font-family="Georgia, 'Times New Roman', serif" font-size="26" fill="#e8dcc8" letter-spacing="4">NATHANIEL</text>
  <text x="160" y="80" font-family="Georgia, 'Times New Roman', serif" font-size="13" font-style="italic" fill="#7a6a56" letter-spacing="1.5">Développeur Web Freelance</text>
</svg>
