<svg width="400" height="265" viewBox="0 0 680 450" xmlns="http://www.w3.org/2000/svg">
  <rect width="680" height="450" fill="#0D0D0D"/>
  <circle cx="340" cy="196" r="118" stroke="#7E5B2E" stroke-width="0.5" fill="none"/>
  <circle cx="340" cy="196" r="97" stroke="#C28D39" stroke-width="0.7" fill="none"/>
  <line x1="340" y1="78" x2="340" y2="99" stroke="#C28D39" stroke-width="0.8"/>
  <line x1="340" y1="293" x2="340" y2="314" stroke="#C28D39" stroke-width="0.8"/>
  <line x1="222" y1="196" x2="243" y2="196" stroke="#C28D39" stroke-width="0.8"/>
  <line x1="437" y1="196" x2="458" y2="196" stroke="#C28D39" stroke-width="0.8"/>
  <path d="M340 71 L346 78 L340 85 L334 78 Z" fill="#C28D39"/>
  <path d="M340 307 L346 314 L340 321 L334 314 Z" fill="#C28D39"/>
  <path d="M215 196 L222 190 L229 196 L222 202 Z" fill="#C28D39"/>
  <path d="M451 196 L458 190 L465 196 L458 202 Z" fill="#C28D39"/>
  <line x1="415" y1="110" x2="424" y2="121" stroke="#710912" stroke-width="0.5"/>
  <line x1="265" y1="110" x2="256" y2="121" stroke="#710912" stroke-width="0.5"/>
  <line x1="415" y1="282" x2="424" y2="271" stroke="#710912" stroke-width="0.5"/>
  <line x1="265" y1="282" x2="256" y2="271" stroke="#710912" stroke-width="0.5"/>
  <text x="340" y="244" font-family="Georgia, 'Times New Roman', serif" font-size="132" fill="#EFE5D2" text-anchor="middle">N</text>
  <line x1="245" y1="346" x2="328" y2="346" stroke="#7E5B2E" stroke-width="0.5"/>
  <path d="M340 339 L347 346 L340 353 L333 346 Z" fill="#C28D39"/>
  <line x1="352" y1="346" x2="435" y2="346" stroke="#7E5B2E" stroke-width="0.5"/>
  <text x="340" y="381" font-family="Georgia, 'Times New Roman', serif" font-size="19" fill="#C28D39" text-anchor="middle" letter-spacing="9">NATHANIEL</text>
  <text x="340" y="410" font-family="Georgia, 'Times New Roman', serif" font-size="12" font-style="italic" fill="#A99683" text-anchor="middle" letter-spacing="2">Développeur Web Freelance</text>
</svg>
